<svg id="Layer_1" data-name="Layer 1" xmlns="http://www.w3.org/2000/svg" viewBox="0 0 612 792"><defs><style>.cls-1{fill:#fff;stroke:#010101;stroke-miterlimit:10;stroke-width:3px;}</style></defs><title>Artboard 1</title><path class="cls-1" d="M227.44,377.63c6.3-16.65,34.2-75.65,102.93-39.16a7.29,7.29,0,0,1,1.21.81c3.09,2.54,17.59,14.87,22.09,26.29a7.53,7.53,0,0,0,8.07,4.73c8.55-1.2,22.55-.51,25.67,15.82a7,7,0,0,0,6.7,5.65c17.07.4,62.88,5.25,44.35,47-.24.54-.47,1.1-.67,1.66-1.51,4.12-11.65,25.7-55.49,13.28a7.38,7.38,0,0,0-8.61,3.68c-5.22,10.2-20.26,28.88-55.29,8.43a7.46,7.46,0,0,0-6.71-.42c-6.36,2.72-20.93,7-35.52-2.63a7.85,7.85,0,0,0-9.68.82c-10.54,9.85-38.72,28.36-75.94-8.26a8.11,8.11,0,0,0-5.84-2.33c-7.79.14-26.79-2.21-27.67-28.32a7.47,7.47,0,0,1,.77-3.61c3-6,14.41-25.69,32.21-21a8,8,0,0,0,8.23-2.68c4.12-5.11,12.11-13,23.5-15.08A7.49,7.49,0,0,0,227.44,377.63Z"/></svg>
